<svg width="81" height="18" viewBox="0 0 81 18" fill="none" xmlns="http://www.w3.org/2000/svg">
<path d="M3.71197 11.9359V13.8879H-2.92063e-05V2.68794H2.14397V11.9359H3.71197ZM7.19247 3.47194L10.8725 2.75194V3.87194L7.19247 4.59194V3.47194ZM7.19247 1.79194L10.8725 1.07194V2.19194L7.19247 2.91194V1.79194ZM14.3603 11.9359V13.8879H12.2643C11.731 13.8879 11.187 13.8293 10.6323 13.7119C10.0883 13.5839 9.57635 13.4133 9.09635 13.1999C8.61635 13.4133 8.10435 13.5839 7.56035 13.7119C7.02701 13.8293 6.51501 13.8879 6.02435 13.8879H3.70435V11.9359H5.97635C6.30701 11.9359 6.66968 11.8933 7.06435 11.8079C6.30701 11.1253 5.73101 10.5226 5.33635 9.99994C4.95235 9.47727 4.76035 8.92794 4.76035 8.35194L4.71235 6.94394C5.21368 6.62394 5.86968 6.33594 6.68035 6.07994C7.49101 5.82394 8.29101 5.69594 9.08035 5.69594C9.85901 5.69594 10.659 5.82394 11.4803 6.07994C12.3123 6.33594 12.9897 6.62394 13.5123 6.94394L13.4483 8.35194C13.4483 8.93861 13.251 9.48794 12.8563 9.99994C12.4723 10.5119 11.9017 11.1146 11.1443 11.8079C11.539 11.8933 11.907 11.9359 12.2483 11.9359H14.3603ZM9.11235 10.9759C9.90168 10.4853 10.4777 9.98394 10.8403 9.47194C11.2137 8.95994 11.4003 8.48527 11.4003 8.04794C10.611 7.78127 9.84301 7.64794 9.09635 7.64794C8.36035 7.64794 7.60835 7.78127 6.84035 8.04794C6.84035 8.49594 7.03235 8.98661 7.41635 9.51994C7.80035 10.0533 8.36568 10.5386 9.11235 10.9759ZM21.2886 11.9359V13.8879H14.3606V11.9359H16.7446V5.88794H18.8886V11.9359H21.2886ZM15.7526 15.1679H17.4006V17.1679H15.7526V15.1679ZM18.1846 15.1679H19.8326V17.1679H18.1846V15.1679ZM28.2105 11.9359V13.8879H21.2825V11.9359H23.6665V5.88794H25.8105V11.9359H28.2105ZM23.7305 15.1679H25.6985V17.2479H23.7305V15.1679ZM34.2203 5.74394C35.319 5.74394 36.1617 5.90394 36.7483 6.22394C37.3457 6.54394 37.7457 6.99727 37.9483 7.58394C38.1617 8.17061 38.2683 8.93861 38.2683 9.88794V13.8879H28.2043V11.9359H30.7003C30.551 11.1679 30.4763 10.4906 30.4763 9.90394C30.4763 9.31727 30.535 8.68794 30.6523 8.01594C30.7697 7.34394 30.903 6.76261 31.0523 6.27194C31.3403 6.13327 31.767 6.01061 32.3323 5.90394C32.8977 5.79727 33.527 5.74394 34.2203 5.74394ZM32.5563 9.90394C32.5563 10.2666 32.5777 10.6399 32.6203 11.0239C32.6737 11.3973 32.727 11.7013 32.7803 11.9359H36.1243V9.83994C36.1243 9.09327 35.975 8.54394 35.6763 8.19194C35.3883 7.83994 34.8283 7.66394 33.9963 7.66394C33.591 7.66394 33.1857 7.70661 32.7803 7.79194C32.631 8.59194 32.5563 9.29594 32.5563 9.90394ZM49.6993 13.8879H47.0593C47.0487 15.1466 46.8193 16.1226 46.3713 16.8159C45.934 17.5093 45.2727 17.8559 44.3873 17.8559C44.2487 17.8559 43.8593 17.8346 43.2193 17.7919V15.8719L43.7633 15.9039C44.1473 15.9039 44.4353 15.7493 44.6273 15.4399C44.8193 15.1413 44.9153 14.7146 44.9153 14.1599V5.88794H47.0593V11.9359H49.6993V13.8879ZM56.6323 11.9359V13.8879H49.7043V11.9359H52.0883V5.88794H54.2323V11.9359H56.6323ZM52.3763 0.271939H53.9123V2.06394H52.3763V0.271939ZM51.0963 2.47994H52.7443V4.39994H51.0963V2.47994ZM53.5283 2.47994H55.1763V4.39994H53.5283V2.47994ZM62.7702 6.12794C63.6236 6.12794 64.2796 6.35727 64.7382 6.81594C65.1969 7.27461 65.5009 7.79194 65.6502 8.36794C65.8102 8.94394 65.8902 9.48261 65.8902 9.98394V13.8879H56.6262V11.9359H63.7462V9.96794C63.7462 9.41327 63.6129 8.95994 63.3462 8.60794C63.0902 8.25594 62.7809 8.07994 62.4182 8.07994H58.1302L57.0262 6.59194L57.9862 4.71994C58.1996 4.29327 58.4876 3.83994 58.8502 3.35994C59.2129 2.86927 59.5542 2.44794 59.8742 2.09594L61.4582 2.99194C60.9036 3.78127 60.3809 4.63994 59.8902 5.56794L59.6022 6.12794H62.7702ZM75.949 2.68794V13.8879H67.485V11.9359H69.501V4.84794H71.645V11.9359H73.805V2.68794H75.949ZM72.333 3.16794L68.829 3.85594L68.653 3.10394L69.389 2.91194C68.973 2.55994 68.765 2.12794 68.765 1.61594C68.765 1.17861 68.9196 0.799939 69.229 0.479939C69.549 0.159939 69.9543 -6.10352e-05 70.445 -6.10352e-05C70.861 -6.10352e-05 71.277 0.127939 71.693 0.383939L71.485 1.34394C71.421 1.29061 71.3303 1.24261 71.213 1.19994C71.0956 1.14661 70.9623 1.11994 70.813 1.11994C70.5676 1.11994 70.365 1.19994 70.205 1.35994C70.0556 1.51994 69.981 1.71194 69.981 1.93594C69.981 2.23461 70.109 2.47461 70.365 2.65594L72.109 2.19194L72.333 3.16794ZM78.3281 2.68794H80.4721V13.8879H78.3281V2.68794Z" fill="#0C0D0D"/>
</svg>
